<?xml version="1.0" ?><svg id="Layer_1" style="enable-background:new 0 0 512 512;" version="1.1" viewBox="0 0 512 512" xml:space="preserve" xmlns="http://www.w3.org/2000/svg" xmlns:xlink="http://www.w3.org/1999/xlink"><g><g><path d="M349.264,52.141c-0.38-0.241-0.789-0.447-1.23-0.606c-0.086-0.031-0.172-0.051-0.258-0.078    c-6.582-2.965-13.331-5.622-20.231-7.951c-0.152-0.069-0.304-0.136-0.464-0.194c-0.298-0.11-0.599-0.188-0.9-0.25    C304.093,35.765,280.502,31.801,256,31.801C132.37,31.801,31.793,132.377,31.793,256c0,94.689,59.006,175.855,142.182,208.663    c0.261,0.139,0.531,0.267,0.818,0.37c0.171,0.063,0.344,0.092,0.516,0.138c6.884,2.665,13.932,4.997,21.123,6.981    c0.061,0.024,0.119,0.053,0.181,0.076c0.379,0.136,0.763,0.225,1.146,0.284c18.581,5.003,38.102,7.687,58.241,7.687    c123.63,0,224.207-100.576,224.207-224.199C480.207,165.637,426.463,87.598,349.264,52.141z M299.503,204.761    c0.141,0.194,0.282,0.389,0.412,0.593c1.827,2.802,2.436,6.137,1.736,9.395c-0.685,3.266-2.619,6.06-5.421,7.88    c-1.171,0.756-2.435,1.295-3.742,1.623L299.503,204.761z M272.632,279.422c0.466,1.727,1.197,3.412,2.219,4.992    c3.396,5.223,9.106,8.07,14.908,8.07c3.289,0,6.624-0.914,9.578-2.84c3.974-2.566,6.715-6.533,7.705-11.162    c0.99-4.622,0.122-9.357-2.452-13.331c0,0,0-0.008-0.015-0.015c-5.284-8.154-16.248-10.522-24.485-5.215    c-0.207,0.134-0.394,0.287-0.593,0.429l8.383-23.293c0.525,0.033,1.051,0.061,1.575,0.061c4.766,0,9.471-1.363,13.568-4.028    c5.588-3.624,9.441-9.213,10.842-15.73c1.386-6.525,0.152-13.202-3.472-18.79c-1.688-2.606-3.813-4.839-6.275-6.628l5.604-15.57    c4.982,3.223,9.686,6.92,14.025,11.059c30.598,29.169,37.948,75.439,18.69,112.429c-7.676-6.744-9.627-12.645-9.722-12.949    c-0.959-3.312-4.355-5.208-7.72-4.286c-3.304,0.952-5.223,4.401-4.279,7.713c0.213,0.731,5.39,17.961,30.713,30.043    c6.533,3.122,13.766,4.675,22.262,4.477c3.457-0.099,7.065,1.264,9.7,3.776c2.832,2.695,4.37,6.479,4.248,10.385    c-0.137,3.944-1.903,7.53-4.979,10.096c-4.766,3.982-11.832,4.172-16.811,0.472c-2.604-1.934-4.385-4.583-5.162-7.644    c-1.066-4.264-2.817-7.895-5.177-10.766c-5.436-6.674-12.375-10.949-19.484-13.674c-0.095-0.037-0.189-0.077-0.286-0.109    c-16.761-6.322-34.371-4.035-35.414-3.881c-3.411,0.472-5.786,3.616-5.314,7.02c0.472,3.419,3.67,5.771,7.02,5.337    c0.16-0.025,9.271-1.188,19.735,0.639c-12.76,11.481-28.409,19.312-45.225,22.607c0.875-3.687,2.01-6.132,2.04-6.192    c1.477-3.106,0.183-6.829-2.924-8.322c-3.076-1.5-6.822-0.221-8.299,2.886c-0.263,0.531-3.957,8.305-4.161,18.59    c-0.017,0.251-0.017,0.506-0.003,0.763c-0.018,6.803,1.521,14.626,6.569,22.157c2.375,4.462,0.868,10.073-3.457,12.776    c-3.594,2.238-9.608,1.348-12.395-1.873c-2.848-3.312-3.182-7.979-0.563-12.014c0.091-0.145,0.807-1.31,0.898-1.462    c9.076-16.636,2.025-34.459,1.721-35.206c-0.783-1.907-2.405-3.214-4.252-3.688L272.632,279.422z M286.881,270.39    c0.868-0.571,1.858-0.838,2.832-0.838c1.705,0,3.396,0.838,4.401,2.375c0.761,1.18,1.02,2.581,0.731,3.951    c-0.289,1.363-1.096,2.528-2.284,3.297c-2.406,1.561-5.665,0.868-7.233-1.546C283.759,275.209,284.46,271.958,286.881,270.39z     M331.722,177.823c-0.45-0.422-0.904-0.84-1.36-1.254c1.722-1.739,3.394-3.615,5.003-5.621c3.944-4.941,6.7-10.979,8.192-17.953    c0.579-2.771,2.223-5.154,4.583-6.715c2.573-1.66,5.725-2.162,8.649-1.378c2.985,0.799,5.406,2.787,6.822,5.588    c2.177,4.332,1.066,9.745-2.65,12.882c-1.919,1.629-4.248,2.52-6.73,2.566c-3.883,0.076-7.355,0.853-10.294,2.292    C339.346,170.474,335.264,173.701,331.722,177.823z M364.887,244.781c-0.248-2.323-0.55-4.639-0.947-6.941    c5.599-1.435,10.807-4.062,15.934-8.168c4.934-3.221,11.618-2.04,15.212,2.718c2.985,3.967,2.543,11.07-0.929,14.626    c-3.533,3.647-8.938,4.523-13.948,1.858c-0.137-0.076-1.431-0.723-1.584-0.784C374.319,246.201,369.709,245.097,364.887,244.781z     M242.829,362.228c0.97,0.141,1.94,0.273,2.912,0.387c-0.51,2.874-1.47,5.897-3.126,8.884c-5.314,8.2-4.553,19.118,1.858,26.549    c4.188,4.865,10.613,7.469,17.009,7.469c4.02,0,8.025-1.028,11.436-3.16c9.867-6.175,13.309-19.011,7.796-29.343l-1.218-1.926    c-1.987-2.962-3.071-6.113-3.58-9.197c22.515-3.741,43.366-14.628,59.368-31.095c3.947,1.978,7.618,4.655,10.573,8.284    c1.218,1.469,2.101,3.403,2.741,5.923c1.492,5.878,4.873,10.918,9.791,14.588c4.583,3.403,10.065,5.094,15.547,5.094    c5.984,0,11.953-2.01,16.72-5.992c5.756-4.804,9.197-11.824,9.456-19.263c0.244-7.454-2.71-14.679-8.116-19.826    c-5.025-4.789-11.085-7.263-18.547-7.218c-6.274,0.107-11.877-0.975-16.643-3.259c-1.439-0.687-2.785-1.389-4.062-2.1    c8.397-15.551,12.582-32.608,12.755-49.629c3.01,0.38,6.055,1.242,9.383,2.757c3.472,1.858,7.294,2.756,11.086,2.756    c6.304,0,12.547-2.482,17.131-7.202c7.842-8.04,8.71-21.866,1.949-30.82c-7.492-9.982-21.547-12.456-32.008-5.657    c-0.624,0.411-1.233,0.883-2.025,1.523c-2.88,2.322-6.206,3.956-9.908,4.923c-4.112-13.996-11.08-27.228-20.764-38.741    c2.634-3.325,5.674-5.844,9.08-7.502c1.31-0.64,3-0.99,5.055-1.028c5.375-0.099,10.415-2.01,14.542-5.512    c8.07-6.799,10.476-18.577,5.741-28.018c-3-5.931-8.36-10.316-14.74-12.022c-6.38-1.728-13.202-0.617-18.714,2.992    c-5.132,3.38-8.664,8.543-9.959,14.542c-1.066,5.063-3,9.357-5.725,12.76c-1.615,2.025-3.307,3.858-5.044,5.528    c-2.128-1.52-4.308-2.957-6.533-4.312l21.93-60.932c56.264,29.574,92.248,88.71,92.248,152.565    c0,94.965-77.248,172.228-172.221,172.228c-12.008,0-23.948-1.252-35.595-3.695L242.829,362.228z M278.328,226.801    c-0.229,0.395-0.423,0.818-0.568,1.272c-0.093,0.291-0.156,0.584-0.205,0.877l-44.573,123.845c-0.05,0.12-0.09,0.244-0.132,0.368    l-26.522,73.689c-0.016,0.041-0.03,0.083-0.045,0.124l-11.423,31.739c-3.36-1.015-6.684-2.111-9.972-3.287l11.205-31.029    c0.015-0.035,0.035-0.065,0.049-0.1c0.071-0.179,0.13-0.36,0.183-0.542l26.54-73.495c0.001-0.003,0.002-0.006,0.003-0.009    L328.716,57.138c3.152,1.156,6.268,2.389,9.349,3.689L278.328,226.801z M254.8,225.125c-0.378-3.049-1.407-6.061-3.185-8.808    c0-0.008,0-0.008-0.015-0.008c-6.319-9.753-19.384-12.509-29.115-6.213c-4.72,3.061-7.964,7.774-9.136,13.271    s-0.122,11.124,2.924,15.836c3.061,4.72,7.766,7.971,13.263,9.144c1.477,0.312,2.969,0.472,4.446,0.472    c4.005,0,7.949-1.157,11.405-3.396c1.06-0.687,2.021-1.468,2.914-2.302l-13.342,36.947c-5.671-2.083-12.124-1.472-17.362,1.932    c-4.385,2.84-7.4,7.21-8.497,12.311c-1.081,5.101-0.122,10.317,2.71,14.702c2.377,3.668,5.873,6.368,9.884,7.785l-8.236,22.806    c-7.45-4.011-14.352-9-20.561-14.907c-7.004-6.677-12.852-14.258-17.478-22.589c8.647-0.725,15.602,1.152,15.712,1.194    c3.38,0.936,6.761-1.013,7.69-4.302c0.944-3.304-0.959-6.746-4.264-7.69c-1.203-0.343-29.404-8.169-49.154,10.827    c-0.015,0-1.203,1.104-1.218,1.104c-5.832,4.576-14.314,3.83-19.308-1.728c-4.248-4.713-4.446-13.476-0.442-18.387    c4.05-4.934,10.69-6.624,16.826-4.012c0.731,0.32,1.477,0.632,2.208,0.876c22.247,7.545,42.53-4.918,43.383-5.459    c2.924-1.82,3.792-5.649,1.98-8.573c-1.812-2.931-5.665-3.792-8.573-2.01c-0.107,0.058-6.721,4.049-15.806,5.461    c-2.806-19.712,0.608-39.599,9.767-57.138c7.678,6.743,9.63,12.643,9.724,12.947c0.792,2.741,3.289,4.523,6,4.523    c0.563,0,1.142-0.076,1.721-0.236c3.304-0.952,5.223-4.401,4.279-7.713c-0.213-0.731-5.39-17.961-30.729-30.043    c-6.533-3.122-13.796-4.698-22.262-4.477c-3.685-0.251-7.081-1.271-9.7-3.776c-2.832-2.688-4.37-6.472-4.248-10.37    c0.137-3.951,1.903-7.545,4.964-10.111c4.781-3.959,11.847-4.195,16.826-0.472c2.604,1.934,4.385,4.583,5.162,7.675    c1.112,4.309,2.802,7.819,5.177,10.735c18.318,22.498,53.737,17.915,55.184,17.664c3.411-0.472,5.786-3.616,5.314-7.02    c-0.472-3.426-3.7-5.809-7.02-5.337c-0.168,0.025-9.287,1.19-19.755-0.639c22.315-20.118,52.787-28.456,82.329-22.489    L254.8,225.125z M238.595,234.956c-1.903,1.241-4.157,1.667-6.456,1.195c-2.238-0.48-4.142-1.804-5.391-3.731    c-1.249-1.919-1.675-4.21-1.203-6.449c0.487-2.238,1.812-4.157,3.731-5.406c1.431-0.929,3.045-1.378,4.644-1.378    c2.817,0,5.573,1.386,7.233,3.913C243.712,227.068,242.57,232.39,238.595,234.956z M194.881,342.602    c1.14,0.838,2.297,1.651,3.467,2.442c-3.927,6.06-6.056,12.868-6.227,20.501c-0.594,5.017-5.025,8.657-10.141,8.466    c-4.248-0.228-8.664-4.431-9.075-8.649c-0.442-4.347,1.964-8.36,6.243-10.081c0.152-0.068,1.599-0.693,1.766-0.769    C186.31,351.843,191.048,347.781,194.881,342.602z M209.182,351.451l-4.473,12.387c0.232-4.337,1.699-8.501,4.387-12.433    C209.124,351.42,209.153,351.436,209.182,351.451z M222.287,302.23c-1.035-1.584-1.37-3.472-0.99-5.314    c0.396-1.842,1.492-3.419,3.076-4.446c1.924-1.252,4.287-1.452,6.348-0.666l-4.787,13.257    C224.453,304.555,223.161,303.578,222.287,302.23z M239.28,145.77c-0.091-0.274-0.183-0.541-0.274-0.807    c-1.827-5.193-5.01-10.027-9.502-14.375c-1.553-1.508-2.436-3.525-2.467-5.703c-0.061-2.322,0.883-4.576,2.589-6.159    c1.538-1.424,3.487-2.185,5.573-2.185c0.274,0,0.533,0.008,0.807,0.038c3.685,0.343,6.761,3.251,7.279,6.883    c0.274,1.949-0.091,3.83-1.051,5.444c-1.751,2.931-2.802,5.893-3.122,8.839C238.824,140.402,238.885,143.082,239.28,145.77z     M281.461,151.294c-9.489-2.094-19.082-2.872-28.544-2.397c-1.255-3.385-1.736-6.684-1.409-9.828    c0.122-1.119,0.609-2.383,1.416-3.754c2.452-4.081,3.396-8.779,2.71-13.613c-1.34-9.296-9.121-16.674-18.471-17.549    c-5.862-0.556-11.74,1.447-16.034,5.444c-4.309,4.012-6.7,9.677-6.578,15.547c0.107,5.482,2.345,10.606,6.289,14.405    c3.061,2.977,5.223,6.182,6.396,9.532c0.461,1.326,0.846,2.634,1.185,3.928c-17.58,5.102-33.854,14.707-47.063,28.327    c-3.939-1.974-7.603-4.645-10.554-8.264c-1.203-1.477-2.117-3.426-2.756-5.946c-1.492-5.878-4.873-10.918-9.791-14.588    c-9.547-7.104-23.1-6.723-32.282,0.898c-5.741,4.812-9.182,11.832-9.426,19.278c-0.244,7.454,2.695,14.672,8.101,19.811    c4.903,4.667,11.283,7.225,18.029,7.225c0.168,0,0.335-0.008,0.518-0.008c6.137-0.198,11.862,0.975,16.643,3.259    c1.435,0.685,2.779,1.385,4.054,2.093c-10.642,19.65-14.824,42-12.041,64.217c-1.454-0.272-2.921-0.642-4.393-1.138l-1.584-0.655    c-11.009-4.652-23.511-1.561-31.094,7.713c-7.827,9.57-7.446,25.43,0.807,34.627c5.253,5.832,12.563,8.839,19.917,8.839    c5.756,0,11.542-1.85,16.369-5.634c0.7-0.541,1.34-1.142,2.162-1.926c2.744-2.638,5.77-4.558,8.874-5.942    c5.461,10.609,12.626,20.189,21.382,28.532c0.313,0.299,0.64,0.579,0.956,0.874c-2.33,3.229-5.788,6.681-11.037,9.214    c-9.06,3.662-14.694,13.035-13.735,22.788c1.051,10.4,10.4,19.308,20.831,19.864c0.396,0.023,0.792,0.03,1.188,0.03    c6.652,0,12.722-2.991,16.826-7.748l-12.628,34.968C123.944,386.198,83.764,324.98,83.764,256    c0-94.973,77.263-172.236,172.236-172.236c16.166,0,32.095,2.229,47.453,6.629L281.461,151.294z M44.28,256    c0-116.748,94.973-211.728,211.72-211.728c21.156,0,41.591,3.133,60.881,8.936l-9.183,25.431    c-16.725-4.872-34.088-7.345-51.698-7.345C154.145,71.293,71.278,154.152,71.278,256c0,74.264,43.437,140.13,111.172,169.477    l-9.177,25.413C97.519,418.611,44.28,343.409,44.28,256z M256,467.728c-16.888,0-33.316-1.999-49.071-5.753l9.21-25.589    c13.024,2.863,26.413,4.313,39.861,4.313c101.84,0,184.707-82.852,184.707-184.699c0-69.06-39.265-132.977-100.47-164.416    l9.194-25.545C419.446,100.617,467.72,172.771,467.72,256C467.72,372.748,372.748,467.728,256,467.728z"/></g><path d="M278.328,226.801c-0.229,0.395-0.423,0.818-0.568,1.272c-0.093,0.291-0.156,0.584-0.205,0.877   l-44.573,123.845c-0.05,0.12-0.09,0.244-0.132,0.368l-26.522,73.689c-0.016,0.041-0.03,0.083-0.045,0.124l-11.423,31.739   c-3.36-1.015-6.684-2.111-9.972-3.287l11.205-31.029c0.015-0.035,0.035-0.065,0.049-0.1c0.071-0.179,0.13-0.36,0.183-0.542   l26.54-73.495c0.001-0.003,0.002-0.006,0.003-0.009L328.716,57.138c3.152,1.156,6.268,2.389,9.349,3.689L278.328,226.801z" style="fill:#C7463B;"/><path d="M44.28,256c0-116.748,94.973-211.728,211.72-211.728c21.156,0,41.591,3.133,60.881,8.936   l-9.183,25.431c-16.725-4.872-34.088-7.345-51.698-7.345C154.145,71.293,71.278,154.152,71.278,256   c0,74.264,43.437,140.13,111.172,169.477l-9.177,25.413C97.519,418.611,44.28,343.409,44.28,256z" style="fill:#C7463B;"/><path d="M256,467.728c-16.888,0-33.316-1.999-49.071-5.753l9.21-25.589   c13.024,2.863,26.413,4.313,39.861,4.313c101.84,0,184.707-82.852,184.707-184.699c0-69.06-39.265-132.977-100.47-164.416   l9.194-25.545C419.446,100.617,467.72,172.771,467.72,256C467.72,372.748,372.748,467.728,256,467.728z" style="fill:#C7463B;"/><path d="M272.632,279.422c0.466,1.727,1.197,3.412,2.219,4.992c3.396,5.223,9.106,8.07,14.908,8.07   c3.289,0,6.624-0.914,9.578-2.84c3.974-2.566,6.715-6.533,7.705-11.162c0.99-4.622,0.122-9.357-2.452-13.331   c0,0,0-0.008-0.015-0.015c-5.284-8.154-16.248-10.522-24.485-5.215c-0.207,0.134-0.394,0.287-0.593,0.429l8.383-23.293   c0.525,0.033,1.051,0.061,1.575,0.061c4.766,0,9.471-1.363,13.568-4.028c5.588-3.624,9.441-9.213,10.842-15.73   c1.386-6.525,0.152-13.202-3.472-18.79c-1.688-2.606-3.813-4.839-6.275-6.628l5.604-15.57c4.982,3.223,9.686,6.92,14.025,11.059   c30.598,29.169,37.948,75.439,18.69,112.429c-7.676-6.744-9.627-12.645-9.722-12.949c-0.959-3.312-4.355-5.208-7.72-4.286   c-3.304,0.952-5.223,4.401-4.279,7.713c0.213,0.731,5.39,17.961,30.713,30.043c6.533,3.122,13.766,4.675,22.262,4.477   c3.457-0.099,7.065,1.264,9.7,3.776c2.832,2.695,4.37,6.479,4.248,10.385c-0.137,3.944-1.903,7.53-4.979,10.096   c-4.766,3.982-11.832,4.172-16.811,0.472c-2.604-1.934-4.385-4.583-5.162-7.644c-1.066-4.264-2.817-7.895-5.177-10.766   c-5.436-6.674-12.375-10.949-19.484-13.674c-0.095-0.037-0.189-0.077-0.286-0.109c-16.761-6.322-34.371-4.035-35.414-3.881   c-3.411,0.472-5.786,3.616-5.314,7.02c0.472,3.419,3.67,5.771,7.02,5.337c0.16-0.025,9.271-1.188,19.735,0.639   c-12.76,11.481-28.409,19.312-45.225,22.607c0.875-3.687,2.01-6.132,2.04-6.192c1.477-3.106,0.183-6.829-2.924-8.322   c-3.076-1.5-6.822-0.221-8.299,2.886c-0.263,0.531-3.957,8.305-4.161,18.59c-0.017,0.251-0.017,0.506-0.003,0.763   c-0.018,6.803,1.521,14.626,6.569,22.157c2.375,4.462,0.868,10.073-3.457,12.776c-3.594,2.238-9.608,1.348-12.395-1.873   c-2.848-3.312-3.182-7.979-0.563-12.014c0.091-0.145,0.807-1.31,0.898-1.462c9.076-16.636,2.025-34.459,1.721-35.206   c-0.783-1.907-2.405-3.214-4.252-3.688L272.632,279.422z" style="fill:#02A437;"/><path d="M254.8,225.125c-0.378-3.049-1.407-6.061-3.185-8.808c0-0.008,0-0.008-0.015-0.008   c-6.319-9.753-19.384-12.509-29.115-6.213c-4.72,3.061-7.964,7.774-9.136,13.271s-0.122,11.124,2.924,15.836   c3.061,4.72,7.766,7.971,13.263,9.144c1.477,0.312,2.969,0.472,4.446,0.472c4.005,0,7.949-1.157,11.405-3.396   c1.06-0.687,2.021-1.468,2.914-2.302l-13.342,36.947c-5.671-2.083-12.124-1.472-17.362,1.932c-4.385,2.84-7.4,7.21-8.497,12.311   c-1.081,5.101-0.122,10.317,2.71,14.702c2.377,3.668,5.873,6.368,9.884,7.785l-8.236,22.806c-7.45-4.011-14.352-9-20.561-14.907   c-7.004-6.677-12.852-14.258-17.478-22.589c8.647-0.725,15.602,1.152,15.712,1.194c3.38,0.936,6.761-1.013,7.69-4.302   c0.944-3.304-0.959-6.746-4.264-7.69c-1.203-0.343-29.404-8.169-49.154,10.827c-0.015,0-1.203,1.104-1.218,1.104   c-5.832,4.576-14.314,3.83-19.308-1.728c-4.248-4.713-4.446-13.476-0.442-18.387c4.05-4.934,10.69-6.624,16.826-4.012   c0.731,0.32,1.477,0.632,2.208,0.876c22.247,7.545,42.53-4.918,43.383-5.459c2.924-1.82,3.792-5.649,1.98-8.573   c-1.812-2.931-5.665-3.792-8.573-2.01c-0.107,0.058-6.721,4.049-15.806,5.461c-2.806-19.712,0.608-39.599,9.767-57.138   c7.678,6.743,9.63,12.643,9.724,12.947c0.792,2.741,3.289,4.523,6,4.523c0.563,0,1.142-0.076,1.721-0.236   c3.304-0.952,5.223-4.401,4.279-7.713c-0.213-0.731-5.39-17.961-30.729-30.043c-6.533-3.122-13.796-4.698-22.262-4.477   c-3.685-0.251-7.081-1.271-9.7-3.776c-2.832-2.688-4.37-6.472-4.248-10.37c0.137-3.951,1.903-7.545,4.964-10.111   c4.781-3.959,11.847-4.195,16.826-0.472c2.604,1.934,4.385,4.583,5.162,7.675c1.112,4.309,2.802,7.819,5.177,10.735   c18.318,22.498,53.737,17.915,55.184,17.664c3.411-0.472,5.786-3.616,5.314-7.02c-0.472-3.426-3.7-5.809-7.02-5.337   c-0.168,0.025-9.287,1.19-19.755-0.639c22.315-20.118,52.787-28.456,82.329-22.489L254.8,225.125z" style="fill:#02A437;"/><path d="M238.595,234.956c-1.903,1.241-4.157,1.667-6.456,1.195c-2.238-0.48-4.142-1.804-5.391-3.731   c-1.249-1.919-1.675-4.21-1.203-6.449c0.487-2.238,1.812-4.157,3.731-5.406c1.431-0.929,3.045-1.378,4.644-1.378   c2.817,0,5.573,1.386,7.233,3.913C243.712,227.068,242.57,232.39,238.595,234.956z" style="fill:#A3D85D;"/><path d="M222.287,302.23c-1.035-1.584-1.37-3.472-0.99-5.314c0.396-1.842,1.492-3.419,3.076-4.446   c1.924-1.252,4.287-1.452,6.348-0.666l-4.787,13.257C224.453,304.555,223.161,303.578,222.287,302.23z" style="fill:#A3D85D;"/><path d="M286.881,270.39c0.868-0.571,1.858-0.838,2.832-0.838c1.705,0,3.396,0.838,4.401,2.375   c0.761,1.18,1.02,2.581,0.731,3.951c-0.289,1.363-1.096,2.528-2.284,3.297c-2.406,1.561-5.665,0.868-7.233-1.546   C283.759,275.209,284.46,271.958,286.881,270.39z" style="fill:#A3D85D;"/><path d="M299.503,204.761c0.141,0.194,0.282,0.389,0.412,0.593c1.827,2.802,2.436,6.137,1.736,9.395   c-0.685,3.266-2.619,6.06-5.421,7.88c-1.171,0.756-2.435,1.295-3.742,1.623L299.503,204.761z" style="fill:#A3D85D;"/><path d="M331.722,177.823c-0.45-0.422-0.904-0.84-1.36-1.254c1.722-1.739,3.394-3.615,5.003-5.621   c3.944-4.941,6.7-10.979,8.192-17.953c0.579-2.771,2.223-5.154,4.583-6.715c2.573-1.66,5.725-2.162,8.649-1.378   c2.985,0.799,5.406,2.787,6.822,5.588c2.177,4.332,1.066,9.745-2.65,12.882c-1.919,1.629-4.248,2.52-6.73,2.566   c-3.883,0.076-7.355,0.853-10.294,2.292C339.346,170.474,335.264,173.701,331.722,177.823z" style="fill:#02A437;"/><path d="M364.887,244.781c-0.248-2.323-0.55-4.639-0.947-6.941c5.599-1.435,10.807-4.062,15.934-8.168   c4.934-3.221,11.618-2.04,15.212,2.718c2.985,3.967,2.543,11.07-0.929,14.626c-3.533,3.647-8.938,4.523-13.948,1.858   c-0.137-0.076-1.431-0.723-1.584-0.784C374.319,246.201,369.709,245.097,364.887,244.781z" style="fill:#02A437;"/><path d="M194.881,342.602c1.14,0.838,2.297,1.651,3.467,2.442c-3.927,6.06-6.056,12.868-6.227,20.501   c-0.594,5.017-5.025,8.657-10.141,8.466c-4.248-0.228-8.664-4.431-9.075-8.649c-0.442-4.347,1.964-8.36,6.243-10.081   c0.152-0.068,1.599-0.693,1.766-0.769C186.31,351.843,191.048,347.781,194.881,342.602z" style="fill:#02A437;"/><path d="M239.28,145.77c-0.091-0.274-0.183-0.541-0.274-0.807c-1.827-5.193-5.01-10.027-9.502-14.375   c-1.553-1.508-2.436-3.525-2.467-5.703c-0.061-2.322,0.883-4.576,2.589-6.159c1.538-1.424,3.487-2.185,5.573-2.185   c0.274,0,0.533,0.008,0.807,0.038c3.685,0.343,6.761,3.251,7.279,6.883c0.274,1.949-0.091,3.83-1.051,5.444   c-1.751,2.931-2.802,5.893-3.122,8.839C238.824,140.402,238.885,143.082,239.28,145.77z" style="fill:#02A437;"/></g></svg>